<svg width="39" height="32" viewBox="0 0 39 32" fill="none" xmlns="http://www.w3.org/2000/svg">
<path d="M33.3723 0H5.6277C4.13514 0 2.70372 0.61922 1.64832 1.72144C0.592919 2.82366 0 4.31859 0 5.87737V26.1226C0 27.6814 0.592919 29.1763 1.64832 30.2786C2.70372 31.3808 4.13514 32 5.6277 32H33.3723C34.8649 32 36.2963 31.3808 37.3517 30.2786C38.4071 29.1763 39 27.6814 39 26.1226V5.88189C39.0006 5.10968 38.8554 4.34492 38.5729 3.63133C38.2903 2.91773 37.8758 2.26928 37.3532 1.72304C36.8306 1.17679 36.21 0.743469 35.5269 0.447821C34.8438 0.152173 34.1117 -2.28463e-07 33.3723 0ZM33.3723 2.81209C33.5968 2.81156 33.8206 2.83888 34.0389 2.89347L22.3506 16.7641C21.9956 17.1845 21.5589 17.5213 21.0697 17.7519C20.5804 17.9826 20.0498 18.1019 19.513 18.1019C18.9762 18.1019 18.4455 17.9826 17.9563 17.7519C17.467 17.5213 17.0304 17.1845 16.6753 16.7641L4.98701 2.89347C5.20532 2.83862 5.42914 2.8113 5.65368 2.81209H33.3723ZM36.3117 26.1226C36.3105 26.9364 36.0005 27.7165 35.4495 28.292C34.8985 28.8674 34.1515 29.1912 33.3723 29.1924H5.6277C4.84848 29.1912 4.1015 28.8674 3.55051 28.292C2.99951 27.7165 2.68946 26.9364 2.68831 26.1226V5.88189C2.68785 5.48171 2.76287 5.08535 2.90909 4.71546L14.645 18.6222C15.2543 19.3386 16.0019 19.912 16.8387 20.3046C17.6756 20.6973 18.5826 20.9003 19.5 20.9003C20.4174 20.9003 21.3244 20.6973 22.1612 20.3046C22.9981 19.912 23.7457 19.3386 24.355 18.6222L36.0909 4.71546C36.235 5.08602 36.3099 5.48194 36.3117 5.88189V26.1226Z" fill="white"/>
</svg>
