<svg width="39" height="33" viewBox="0 0 39 33" fill="none" xmlns="http://www.w3.org/2000/svg">
<path d="M33.3723 0H5.6277C4.13514 0 2.70372 0.63857 1.64832 1.77523C0.592919 2.9119 0 4.45355 0 6.06103V26.939C0 28.5465 0.592919 30.0881 1.64832 31.2248C2.70372 32.3614 4.13514 33 5.6277 33H33.3723C34.8649 33 36.2963 32.3614 37.3517 31.2248C38.4071 30.0881 39 28.5465 39 26.939V6.0657C39.0006 5.26936 38.8554 4.4807 38.5729 3.74481C38.2903 3.00891 37.8758 2.34019 37.3532 1.77688C36.8306 1.21357 36.21 0.766702 35.5269 0.461816C34.8438 0.156929 34.1117 -2.35603e-07 33.3723 0ZM33.3723 2.89997C33.5968 2.89942 33.8206 2.92759 34.0389 2.98389L22.3506 17.2879C21.9956 17.7215 21.5589 18.0688 21.0697 18.3067C20.5804 18.5445 20.0498 18.6675 19.513 18.6675C18.9762 18.6675 18.4455 18.5445 17.9563 18.3067C17.467 18.0688 17.0304 17.7215 16.6753 17.2879L4.98701 2.98389C5.20532 2.92733 5.42914 2.89915 5.65368 2.89997H33.3723ZM36.3117 26.939C36.3105 27.7782 36.0005 28.5827 35.4495 29.1761C34.8985 29.7695 34.1515 30.1035 33.3723 30.1047H5.6277C4.84848 30.1035 4.1015 29.7695 3.55051 29.1761C2.99951 28.5827 2.68946 27.7782 2.68831 26.939V6.0657C2.68785 5.65301 2.76287 5.24427 2.90909 4.86281L14.645 19.2042C15.2543 19.9429 16.0019 20.5342 16.8387 20.9391C17.6756 21.3441 18.5826 21.5534 19.5 21.5534C20.4174 21.5534 21.3244 21.3441 22.1612 20.9391C22.9981 20.5342 23.7457 19.9429 24.355 19.2042L36.0909 4.86281C36.235 5.24496 36.3099 5.65325 36.3117 6.0657V26.939Z" fill="#404040" fill-opacity="0.6"/>
</svg>
