<svg width="33" height="34" viewBox="0 0 33 34" fill="none" xmlns="http://www.w3.org/2000/svg">
<path d="M25.2369 6.89054C24.8534 6.88986 24.4784 7.003 24.1593 7.21562C23.8402 7.42824 23.5913 7.73078 23.4443 8.08493C23.2972 8.43907 23.2585 8.82889 23.3332 9.20502C23.4078 9.58115 23.5924 9.92667 23.8636 10.1978C24.1347 10.469 24.4802 10.6536 24.8564 10.7282C25.2325 10.8028 25.6223 10.7642 25.9765 10.6171C26.3306 10.4701 26.6332 10.2212 26.8458 9.90211C27.0584 9.58299 27.1715 9.20795 27.1709 8.82449C27.1709 8.31157 26.9671 7.81966 26.6044 7.45698C26.2417 7.09429 25.7498 6.89054 25.2369 6.89054Z" fill="#404040" fill-opacity="0.6"/>
<path d="M16.6279 9.37364C15.0202 9.37364 13.4486 9.85043 12.1118 10.7437C10.7751 11.637 9.73333 12.9066 9.11823 14.392C8.50314 15.8774 8.34237 17.5119 8.65627 19.0887C8.97017 20.6654 9.74463 22.1137 10.8817 23.2503C12.0188 24.3869 13.4674 25.1608 15.0443 25.474C16.6212 25.7872 18.2556 25.6258 19.7407 25.0101C21.2259 24.3944 22.4951 23.352 23.3878 22.0149C24.2805 20.6778 24.7566 19.106 24.756 17.4983C24.7533 15.3437 23.8959 13.2783 22.3721 11.7551C20.8483 10.2319 18.7825 9.37544 16.6279 9.37364ZM16.6279 22.7067C15.5976 22.7073 14.5903 22.4024 13.7334 21.8305C12.8764 21.2587 12.2083 20.4455 11.8136 19.4938C11.4188 18.5422 11.3152 17.4948 11.5158 16.4843C11.7164 15.4737 12.2121 14.5454 12.9404 13.8166C13.6687 13.0879 14.5967 12.5915 15.6071 12.3902C16.6176 12.189 17.665 12.2919 18.6169 12.6861C19.5688 13.0802 20.3824 13.7477 20.9549 14.6043C21.5273 15.4609 21.8329 16.468 21.8329 17.4983C21.832 18.8788 21.2834 20.2025 20.3076 21.179C19.3318 22.1554 18.0084 22.7048 16.6279 22.7067Z" fill="#404040" fill-opacity="0.6"/>
<path d="M23.0881 34H9.91194C7.28396 33.9973 4.76439 32.9521 2.90613 31.0939C1.04787 29.2356 0.00270879 26.716 0 24.0881V10.9119C0.000903383 8.28309 1.04537 5.76212 2.90393 3.90292C4.76249 2.04373 7.28309 0.99839 9.91194 0.996582H23.0881C25.7166 0.999292 28.2367 2.04492 30.0951 3.90392C31.9534 5.76292 32.9982 8.28336 33 10.9119V24.0881C32.9964 26.7158 31.9509 29.2348 30.0929 31.0929C28.2348 32.9509 25.7158 33.9964 23.0881 34ZM9.91194 4.10387C8.10271 4.10387 6.36758 4.82258 5.08826 6.1019C3.80895 7.38122 3.09023 9.11635 3.09023 10.9256V24.0881C3.09023 25.8973 3.80895 27.6324 5.08826 28.9117C6.36758 30.191 8.10271 30.9098 9.91194 30.9098H23.0881C24.8973 30.9098 26.6324 30.191 27.9117 28.9117C29.1911 27.6324 29.9098 25.8973 29.9098 24.0881V10.9119C29.9098 9.10271 29.1911 7.36757 27.9117 6.08826C26.6324 4.80894 24.8973 4.09023 23.0881 4.09023L9.91194 4.10387Z" fill="#404040" fill-opacity="0.6"/>
</svg>
