<svg width="33" height="32" viewBox="0 0 33 32" fill="none" xmlns="http://www.w3.org/2000/svg">
<path d="M25.2369 5.71476C24.8534 5.7141 24.4784 5.8238 24.1593 6.02996C23.8402 6.23611 23.5913 6.52946 23.4443 6.87284C23.2972 7.21622 23.2585 7.59418 23.3332 7.95888C23.4078 8.32357 23.5924 8.65858 23.8636 8.92149C24.1347 9.1844 24.4802 9.36337 24.8564 9.43575C25.2325 9.50812 25.6223 9.47064 25.9765 9.32806C26.3306 9.18547 26.6332 8.94419 26.8458 8.63477C27.0584 8.32536 27.1715 7.96172 27.1709 7.58991C27.1709 7.09259 26.9671 6.61564 26.6044 6.26398C26.2417 5.91232 25.7498 5.71476 25.2369 5.71476Z" fill="white"/>
<path d="M16.6279 8.12236C15.0202 8.12236 13.4486 8.58466 12.1118 9.45078C10.7751 10.3169 9.73333 11.5479 9.11823 12.9882C8.50314 14.4284 8.34237 16.0132 8.65627 17.542C8.97017 19.0709 9.74463 20.4751 10.8817 21.5771C12.0188 22.6792 13.4674 23.4295 15.0443 23.7332C16.6212 24.0369 18.2556 23.8804 19.7407 23.2834C21.2259 22.6864 22.4951 21.6758 23.3878 20.3793C24.2805 19.0829 24.7566 17.5588 24.756 16C24.7533 13.911 23.8959 11.9083 22.3721 10.4314C20.8483 8.95454 18.7825 8.12411 16.6279 8.12236ZM16.6279 21.05C15.5976 21.0507 14.5903 20.7551 13.7334 20.2005C12.8764 19.646 12.2083 18.8576 11.8136 17.9349C11.4188 17.0121 11.3152 15.9966 11.5158 15.0168C11.7164 14.037 12.2121 13.1369 12.9404 12.4303C13.6687 11.7237 14.5967 11.2424 15.6071 11.0473C16.6176 10.8521 17.665 10.9519 18.6169 11.3341C19.5688 11.7162 20.3824 12.3635 20.9549 13.194C21.5273 14.0246 21.8329 15.0011 21.8329 16C21.832 17.3385 21.2834 18.622 20.3076 19.5688C19.3318 20.5155 18.0084 21.0483 16.6279 21.05Z" fill="white"/>
<path d="M23.0881 32H9.91194C7.28396 31.9974 4.76439 30.984 2.90613 29.1822C1.04787 27.3805 0.00270879 24.9375 0 22.3894V9.61389C0.000903383 7.06497 1.04537 4.62065 2.90393 2.81798C4.76249 1.01531 7.28309 0.00175289 9.91194 0H23.0881C25.7166 0.00262778 28.2367 1.01647 30.0951 2.81895C31.9534 4.62143 32.9982 7.06524 33 9.61389V22.3894C32.9964 24.9372 31.9509 27.3797 30.0929 29.1813C28.2348 30.9828 25.7158 31.9965 23.0881 32ZM9.91194 3.01282C8.10271 3.01282 6.36758 3.70968 5.08826 4.9501C3.80895 6.19052 3.09023 7.8729 3.09023 9.62712V22.3894C3.09023 24.1436 3.80895 25.826 5.08826 27.0664C6.36758 28.3069 8.10271 29.0037 9.91194 29.0037H23.0881C24.8973 29.0037 26.6324 28.3069 27.9117 27.0664C29.1911 25.826 29.9098 24.1436 29.9098 22.3894V9.61389C29.9098 7.85967 29.1911 6.17729 27.9117 4.93687C26.6324 3.69645 24.8973 2.99959 23.0881 2.99959L9.91194 3.01282Z" fill="white"/>
</svg>
