<svg width="36" height="32" viewBox="0 0 36 32" fill="none" xmlns="http://www.w3.org/2000/svg">
<path d="M10 7H12.7997V9.57143H10V7ZM10 11.6905H12.7997V24H10V11.6905ZM15.8502 11.6905H18.5026V13.5L18.5517 13.5476C18.9774 12.8651 19.5341 12.3333 20.2217 11.9524C20.9094 11.5556 21.6707 11.3571 22.5057 11.3571C23.8974 11.3571 24.9944 11.7063 25.7966 12.4048C26.5989 13.1032 27 14.1508 27 15.5476V24H24.2003V16.2619C24.1675 15.2937 23.9547 14.5952 23.5617 14.1667C23.1688 13.7222 22.5548 13.5 21.7198 13.5C21.245 13.5 20.8193 13.5873 20.4427 13.7619C20.0662 13.9206 19.7469 14.1508 19.4849 14.4524C19.223 14.7381 19.0183 15.0794 18.871 15.4762C18.7236 15.873 18.6499 16.2937 18.6499 16.7381V24H15.8502V11.6905Z" fill="url(#paint0_linear_193_108)"/>
<path d="M28.2526 2H7.74737C4.57318 2 2 4.25154 2 7.02895V24.9711C2 27.7485 4.57318 30 7.74737 30H28.2526C31.4268 30 34 27.7485 34 24.9711V7.02895C34 4.25154 31.4268 2 28.2526 2Z" stroke="url(#paint1_linear_193_108)" stroke-width="3"/>
<defs>
<linearGradient id="paint0_linear_193_108" x1="18.5475" y1="-1.54052" x2="18.5475" y2="26.6092" gradientUnits="userSpaceOnUse">
<stop stop-color="white"/>
<stop offset="1" stop-color="white"/>
</linearGradient>
<linearGradient id="paint1_linear_193_108" x1="18" y1="1.50263" x2="18" y2="30.4974" gradientUnits="userSpaceOnUse">
<stop stop-color="white"/>
<stop offset="1" stop-color="white"/>
</linearGradient>
</defs>
</svg>
